<svg width="25" height="24" viewBox="0 0 25 24" fill="none" xmlns="http://www.w3.org/2000/svg">
<path d="M24.8878 4.78101C24.8427 4.72907 24.7863 4.68726 24.7225 4.65855C24.6588 4.62985 24.5892 4.61493 24.5188 4.61487H4.72828L3.92541 0.37842C3.90518 0.272289 3.84685 0.176318 3.76055 0.107185C3.67426 0.0380511 3.56546 0.000125882 3.45306 0H0.480761C0.353255 0 0.230972 0.048621 0.140812 0.135167C0.0506515 0.221712 0 0.339093 0 0.461487C0 0.583882 0.0506515 0.701263 0.140812 0.787808C0.230972 0.874354 0.353255 0.922975 0.480761 0.922975H3.05163L3.8557 5.16866L6.18859 17.4881C6.29614 18.0511 6.61784 18.5556 7.09122 18.9037C6.5953 19.2105 6.20933 19.6559 5.98533 20.1798C5.76134 20.7038 5.71011 21.2811 5.83854 21.8338C5.96698 22.3866 6.2689 22.8883 6.7036 23.2712C7.1383 23.6541 7.68487 23.8999 8.2696 23.9753C8.85434 24.0508 9.44912 23.9523 9.97373 23.6932C10.4984 23.434 10.9276 23.0267 11.2035 22.5262C11.4795 22.0256 11.5889 21.4558 11.517 20.8937C11.4451 20.3316 11.1954 19.8041 10.8015 19.3825H18.0441C17.6038 19.8551 17.3457 20.4585 17.3131 21.0918C17.2805 21.7251 17.4754 22.35 17.8651 22.8619C18.2548 23.3739 18.8157 23.742 19.4542 23.9047C20.0926 24.0674 20.7699 24.0147 21.3728 23.7557C21.9757 23.4966 22.4677 23.0467 22.7666 22.4812C23.0655 21.9158 23.1531 21.269 23.0149 20.6489C22.8766 20.0289 22.5208 19.4732 22.007 19.0747C21.4932 18.6762 20.8525 18.459 20.1919 18.4595H8.55393C8.21636 18.4593 7.88954 18.3455 7.63038 18.1379C7.37123 17.9302 7.19617 17.6419 7.13569 17.3231L6.65493 14.7676H21.1655C21.7284 14.7677 22.2736 14.5781 22.7058 14.2319C23.1381 13.8857 23.4301 13.4049 23.5308 12.8732L24.9923 5.15943C25.0049 5.09285 25.002 5.02444 24.9839 4.95905C24.9659 4.89365 24.933 4.83287 24.8878 4.78101ZM10.5767 21.2284C10.5767 21.5935 10.4639 21.9504 10.2526 22.254C10.0413 22.5575 9.741 22.7941 9.38961 22.9339C9.03822 23.0736 8.65156 23.1101 8.27852 23.0389C7.90549 22.9677 7.56284 22.7919 7.29389 22.5337C7.02495 22.2755 6.8418 21.9466 6.7676 21.5886C6.6934 21.2305 6.73148 20.8593 6.87703 20.522C7.02258 20.1847 7.26906 19.8964 7.58531 19.6936C7.90155 19.4907 8.27335 19.3825 8.65369 19.3825C9.16371 19.3825 9.65285 19.577 10.0135 19.9231C10.3741 20.2693 10.5767 20.7388 10.5767 21.2284ZM22.115 21.2284C22.115 21.5935 22.0022 21.9504 21.7909 22.254C21.5796 22.5575 21.2792 22.7941 20.9279 22.9339C20.5765 23.0736 20.1898 23.1101 19.8168 23.0389C19.4437 22.9677 19.1011 22.7919 18.8321 22.5337C18.5632 22.2755 18.3801 21.9466 18.3059 21.5886C18.2316 21.2305 18.2697 20.8593 18.4153 20.522C18.5608 20.1847 18.8073 19.8964 19.1236 19.6936C19.4398 19.4907 19.8116 19.3825 20.1919 19.3825C20.702 19.3825 21.1911 19.577 21.5517 19.9231C21.9124 20.2693 22.115 20.7388 22.115 21.2284ZM22.5849 12.7082C22.5244 13.0272 22.3492 13.3157 22.0898 13.5234C21.8304 13.731 21.5033 13.8447 21.1655 13.8446H6.47584L4.90256 5.53785H23.9431L22.5849 12.7082Z" fill="#C0C0C0"/>
</svg>
