<svg width="25" height="21" viewBox="0 0 25 21" fill="none" xmlns="http://www.w3.org/2000/svg">
<path d="M22.5006 12.0591L14.5338 19.7083C14.0056 20.2152 13.2893 20.5 12.5425 20.5C11.7956 20.5 11.0793 20.2152 10.5511 19.7083L2.58428 12.0604C1.92571 11.4337 1.40257 10.6883 1.04489 9.86702C0.687216 9.04572 0.502047 8.16469 0.500017 7.2745C0.497986 6.38432 0.679134 5.50251 1.03306 4.67971C1.38699 3.85692 1.90672 3.10933 2.56242 2.47987C3.21813 1.85041 3.99689 1.35148 4.854 1.01172C5.7111 0.671964 6.62967 0.498067 7.55698 0.500016C8.48428 0.501965 9.40205 0.679722 10.2576 1.02308C11.1131 1.36644 11.8896 1.86864 12.5425 2.50085C13.8685 1.25959 15.6505 0.569826 17.5026 0.580966C19.3546 0.592106 21.1275 1.30326 22.4372 2.56037C23.7469 3.81747 24.488 5.51931 24.4999 7.29722C24.5117 9.07513 23.7934 10.7859 22.5006 12.0591Z" stroke="#C0C0C0" stroke-linecap="round" stroke-linejoin="round"/>
</svg>
