<svg width="18" height="18" viewBox="0 0 18 18" fill="none" xmlns="http://www.w3.org/2000/svg">
<path d="M15.374 17.874H2.5C1.83696 17.874 1.20107 17.6106 0.732233 17.1418C0.263392 16.6729 0 16.037 0 15.374V2.5C0 1.83696 0.263392 1.20107 0.732233 0.732233C1.20107 0.263392 1.83696 0 2.5 0H15.374C16.037 0 16.6729 0.263392 17.1418 0.732233C17.6106 1.20107 17.874 1.83696 17.874 2.5V15.374C17.874 16.037 17.6106 16.6729 17.1418 17.1418C16.6729 17.6106 16.037 17.874 15.374 17.874ZM2.5 1C2.10218 1 1.72064 1.15804 1.43934 1.43934C1.15804 1.72064 1 2.10218 1 2.5V15.374C1 15.7718 1.15804 16.1534 1.43934 16.4347C1.72064 16.716 2.10218 16.874 2.5 16.874H15.374C15.7718 16.874 16.1534 16.716 16.4347 16.4347C16.716 16.1534 16.874 15.7718 16.874 15.374V2.5C16.874 2.10218 16.716 1.72064 16.4347 1.43934C16.1534 1.15804 15.7718 1 15.374 1H2.5Z" fill="black"/>
</svg>
