<svg width="22" height="25" viewBox="0 0 22 25" fill="none" xmlns="http://www.w3.org/2000/svg">
<path d="M11 0C9.29819 0 7.66609 0.65848 6.46273 1.83058C5.25937 3.00268 4.58333 4.5924 4.58333 6.25C4.58333 7.9076 5.25937 9.49731 6.46273 10.6694C7.66609 11.8415 9.29819 12.5 11 12.5C12.7018 12.5 14.3339 11.8415 15.5373 10.6694C16.7406 9.49731 17.4167 7.9076 17.4167 6.25C17.4167 4.5924 16.7406 3.00268 15.5373 1.83058C14.3339 0.65848 12.7018 0 11 0ZM5.5 6.25C5.5 4.8292 6.07946 3.46659 7.11091 2.46193C8.14236 1.45727 9.54131 0.892857 11 0.892857C12.4587 0.892857 13.8576 1.45727 14.8891 2.46193C15.9205 3.46659 16.5 4.8292 16.5 6.25C16.5 7.6708 15.9205 9.03341 14.8891 10.0381C13.8576 11.0427 12.4587 11.6071 11 11.6071C9.54131 11.6071 8.14236 11.0427 7.11091 10.0381C6.07946 9.03341 5.5 7.6708 5.5 6.25ZM3.20833 14.2857C2.35743 14.2857 1.54138 14.615 0.939699 15.201C0.33802 15.7871 0 16.5819 0 17.4107V18.0063C0 19.9259 2.5355 25 11 25C19.4645 25 22 19.925 22 18.0063V17.4107C22 16.5819 21.662 15.7871 21.0603 15.201C20.4586 14.615 19.6426 14.2857 18.7917 14.2857H3.20833ZM0.916667 17.4107C0.916667 16.8187 1.15811 16.251 1.58788 15.8324C2.01765 15.4137 2.60055 15.1786 3.20833 15.1786H18.7917C19.3995 15.1786 19.9823 15.4137 20.4121 15.8324C20.8419 16.251 21.0833 16.8187 21.0833 17.4107V18.0063C21.0833 19.3607 19.0346 24.1071 11 24.1071C2.96542 24.1071 0.916667 19.3607 0.916667 18.0063V17.4107Z" fill="#910000"/>
</svg>
