<svg width="25" height="25" viewBox="0 0 25 25" fill="none" xmlns="http://www.w3.org/2000/svg">
<path d="M2.99779 2.99686C6.99449 -0.998952 13.475 -0.998952 17.4717 2.99686C21.3625 6.88854 21.4639 13.1332 17.7778 17.1486L23.897 23.2687C23.9781 23.3526 24.0229 23.465 24.0219 23.5817C24.0209 23.6984 23.9741 23.81 23.8916 23.8925C23.8091 23.975 23.6975 24.0218 23.5808 24.0228C23.4642 24.0238 23.3518 23.9789 23.2678 23.8979L17.1487 17.7778C13.1333 21.4621 6.88948 21.3616 2.99868 17.4708C-0.998909 13.4741 -0.999799 6.99356 2.99779 2.99686ZM16.8434 3.62604C13.1947 -0.0226936 7.2766 -0.0226936 3.62787 3.62604C-0.0208699 7.27478 -0.0208699 13.1928 3.62787 16.8416C7.2766 20.4903 13.1947 20.4903 16.8434 16.8416C20.4921 13.1928 20.4921 7.27478 16.8434 3.62604Z" fill="#C0C0C0"/>
</svg>
