<svg width="19" height="19" viewBox="0 0 19 19" fill="none" xmlns="http://www.w3.org/2000/svg">
<path d="M14.7946 11.2894L11.7946 9.78938C11.7355 9.75995 11.6697 9.74662 11.6039 9.75074C11.5381 9.75485 11.4745 9.77627 11.4196 9.81281L9.85955 10.8534C9.00203 10.4422 8.31049 9.75065 7.89924 8.89313L8.93987 7.33313C8.97641 7.2782 8.99782 7.21461 9.00194 7.14877C9.00605 7.08293 8.99273 7.01717 8.9633 6.95813L7.4633 3.95813C7.43219 3.8955 7.38418 3.84283 7.32471 3.80606C7.26524 3.76928 7.19667 3.74986 7.12674 3.75C6.23164 3.75 5.37319 4.10558 4.74026 4.73851C4.10732 5.37145 3.75174 6.22989 3.75174 7.125C3.75398 9.21289 4.58438 11.2146 6.06074 12.691C7.53711 14.1674 9.53885 14.9978 11.6267 15C12.5218 15 13.3803 14.6444 14.0132 14.0115C14.6462 13.3785 15.0017 12.5201 15.0017 11.625C15.0018 11.5553 14.9824 11.487 14.9458 11.4277C14.9092 11.3685 14.8569 11.3206 14.7946 11.2894ZM11.6267 14.25C9.73768 14.248 7.92657 13.4967 6.5908 12.1609C5.25503 10.8252 4.50373 9.01406 4.50174 7.125C4.50163 6.468 4.74789 5.83485 5.19189 5.35059C5.63588 4.86632 6.24533 4.56616 6.89987 4.50937L8.19362 7.09781L7.16237 8.64844C7.128 8.6996 7.10676 8.75844 7.10055 8.81976C7.09434 8.88108 7.10333 8.94299 7.12674 9C7.62498 10.1845 8.56726 11.1268 9.75174 11.625C9.80881 11.6487 9.87085 11.6579 9.93235 11.6519C9.99384 11.6458 10.0529 11.6247 10.1042 11.5903L11.6549 10.5591L14.2433 11.8528C14.1863 12.5073 13.8859 13.1167 13.4015 13.5605C12.917 14.0043 12.2838 14.2504 11.6267 14.25ZM9.37674 1.61968e-07C7.74464 -0.000303179 6.14072 0.425483 4.72366 1.23524C3.3066 2.045 2.12549 3.21067 1.29715 4.61696C0.468817 6.02324 0.0219621 7.62141 0.000789099 9.25338C-0.0203839 10.8854 0.384858 12.4946 1.17643 13.9219L0.060805 17.2678C-0.0052996 17.466 -0.0148928 17.6787 0.0331004 17.8821C0.0810936 18.0855 0.184777 18.2715 0.332529 18.4192C0.480281 18.567 0.666262 18.6706 0.869628 18.7186C1.07299 18.7666 1.28571 18.757 1.48393 18.6909L4.82987 17.5753C6.08148 18.2688 7.47523 18.6666 8.90434 18.7382C10.3335 18.8099 11.76 18.5534 13.0747 17.9885C14.3893 17.4236 15.5573 16.5653 16.489 15.4793C17.4207 14.3933 18.0914 13.1084 18.4498 11.7231C18.8082 10.3378 18.8447 8.88884 18.5566 7.48724C18.2684 6.08565 17.6633 4.7686 16.7875 3.63702C15.9117 2.50544 14.7885 1.58934 13.504 0.958918C12.2195 0.328496 10.8076 0.000480032 9.37674 1.61968e-07ZM9.37674 18C7.86031 18.0005 6.37055 17.6011 5.05768 16.8422C5.00063 16.8093 4.93601 16.7919 4.87018 16.7916C4.82969 16.7917 4.78948 16.7983 4.75112 16.8113L1.24674 17.9794C1.18067 18.0014 1.10976 18.0046 1.04198 17.9886C0.974187 17.9726 0.912193 17.9381 0.862942 17.8888C0.813691 17.8396 0.77913 17.7776 0.763133 17.7098C0.747135 17.642 0.750333 17.5711 0.772368 17.505L1.94049 14.0006C1.95734 13.9502 1.9633 13.8969 1.95796 13.844C1.95263 13.7912 1.93613 13.7401 1.90955 13.6941C0.958651 12.0504 0.576762 10.1388 0.823132 8.25597C1.0695 6.37311 1.93036 4.62417 3.27215 3.28049C4.61394 1.93681 6.36167 1.0735 8.24418 0.824482C10.1267 0.575466 12.0388 0.954668 13.6838 1.90326C15.3288 2.85185 16.6148 4.31681 17.3422 6.07086C18.0697 7.82491 18.198 9.77 17.7071 11.6044C17.2163 13.4388 16.1338 15.0599 14.6276 16.2163C13.1214 17.3727 11.2757 17.9997 9.37674 18Z" fill="black"/>
</svg>
